<?xml version="1.0" encoding="UTF-8" standalone="no"?>
<!DOCTYPE svg PUBLIC "-//W3C//DTD SVG 1.1//EN" "http://www.w3.org/Graphics/SVG/1.1/DTD/svg11.dtd">
<svg version="1.1" xmlns="http://www.w3.org/2000/svg" xmlns:xlink="http://www.w3.org/1999/xlink" preserveAspectRatio="xMidYMid meet" viewBox="154.6891495601012 140.83284457477566 299 239.00000000000443" width="295" height="235"><defs><path d="M281.89 142.28L283.58 142.48L285.25 142.71L286.91 142.97L288.56 143.27L290.19 143.6L291.81 143.96L293.41 144.36L295 144.78L296.56 145.24L298.12 145.73L299.65 146.24L301.17 146.79L302.67 147.37L304.14 147.98L305.6 148.61L307.04 149.27L308.46 149.97L309.86 150.68L311.23 151.43L312.59 152.2L313.92 153L315.23 153.82L316.51 154.67L317.77 155.54L319.01 156.44L320.22 157.36L321.4 158.31L322.56 159.28L323.69 160.27L324.8 161.28L325.88 162.32L326.93 163.37L327.95 164.45L328.94 165.55L329.9 166.66L330.3 166.55L330.7 166.44L331.11 166.33L331.51 166.22L331.92 166.11L332.32 166.01L332.73 165.91L333.14 165.82L333.55 165.72L333.96 165.63L334.38 165.54L334.79 165.46L335.21 165.38L335.62 165.3L336.04 165.22L336.46 165.15L336.88 165.08L337.3 165.01L337.73 164.94L338.15 164.88L338.58 164.82L339 164.76L339.43 164.71L339.86 164.66L340.29 164.61L340.72 164.57L341.15 164.52L341.58 164.49L342.02 164.45L342.45 164.42L342.89 164.39L343.33 164.36L343.77 164.34L344.21 164.32L344.65 164.3L345.09 164.29L345.53 164.28L345.97 164.27L346.42 164.26L346.86 164.26L348.88 164.29L350.88 164.39L352.86 164.55L354.81 164.77L356.74 165.06L358.65 165.4L360.53 165.8L362.38 166.26L364.21 166.78L366 167.35L367.76 167.97L369.49 168.65L371.19 169.38L372.84 170.16L374.46 170.99L376.04 171.87L377.59 172.79L379.09 173.76L380.54 174.77L381.96 175.83L383.32 176.93L384.64 178.07L385.91 179.25L387.14 180.46L388.31 181.72L389.42 183.01L390.49 184.34L391.5 185.7L392.45 187.09L393.34 188.52L394.17 189.97L394.95 191.46L395.66 192.97L396.31 194.51L396.89 196.07L397.4 197.66L397.85 199.27L398.23 200.91L398.54 202.56L398.77 204.23L400.98 204.57L403.16 204.95L405.31 205.37L407.43 205.85L409.52 206.37L411.57 206.93L413.58 207.54L415.56 208.19L417.49 208.89L419.39 209.62L421.25 210.4L423.06 211.21L424.83 212.07L426.55 212.96L428.23 213.89L429.86 214.85L431.43 215.85L432.96 216.88L434.43 217.94L435.85 219.04L437.21 220.17L438.52 221.33L439.77 222.52L440.95 223.73L442.08 224.98L443.14 226.25L444.14 227.54L445.08 228.87L445.95 230.21L446.75 231.58L447.48 232.97L448.14 234.38L448.72 235.81L449.24 237.26L449.67 238.73L450.04 240.21L450.32 241.72L450.52 243.24L450.65 244.77L450.69 246.31L450.63 248.09L450.47 249.84L450.2 251.58L449.83 253.29L449.36 254.98L448.79 256.65L448.12 258.29L447.35 259.91L446.49 261.5L445.55 263.05L444.51 264.58L443.38 266.08L442.18 267.54L440.88 268.97L439.51 270.36L438.06 271.71L436.54 273.03L434.94 274.3L433.26 275.53L431.52 276.72L431.36 276.83L432.01 277.98L432.67 279.33L433.25 280.71L433.75 282.1L434.16 283.52L434.49 284.96L434.72 286.41L434.86 287.88L434.91 289.36L434.87 290.66L434.76 291.94L434.59 293.21L434.34 294.47L434.03 295.71L433.65 296.94L433.2 298.16L432.69 299.35L432.12 300.53L431.48 301.7L430.78 302.84L430.03 303.97L429.22 305.07L428.35 306.16L427.42 307.22L426.44 308.27L425.41 309.28L424.33 310.28L423.19 311.25L422 312.19L420.77 313.11L419.49 314L418.16 314.87L416.79 315.7L415.38 316.51L413.92 317.29L412.42 318.03L410.89 318.75L409.31 319.43L407.7 320.08L406.05 320.7L404.36 321.28L402.64 321.82L400.89 322.33L399.11 322.8L397.29 323.24L395.45 323.64L393.58 323.99L391.69 324.31L389.77 324.59L389.56 325.99L389.29 327.38L388.96 328.74L388.57 330.09L388.13 331.42L387.62 332.73L387.06 334.02L386.44 335.29L385.77 336.53L385.04 337.75L384.27 338.94L383.44 340.11L382.56 341.25L381.64 342.36L380.66 343.44L379.65 344.49L378.59 345.51L377.48 346.5L376.33 347.45L375.14 348.37L373.91 349.26L372.65 350.1L371.34 350.92L370 351.69L368.63 352.42L367.22 353.12L365.78 353.77L364.31 354.38L362.8 354.95L361.27 355.47L359.71 355.95L358.13 356.38L356.51 356.76L354.88 357.1L353.22 357.39L351.54 357.63L349.84 357.81L348.12 357.95L346.38 358.03L344.63 358.06L344.24 358.05L343.86 358.05L343.47 358.04L343.09 358.03L342.7 358.02L342.32 358.01L341.94 357.99L341.56 357.97L341.18 357.95L340.8 357.92L340.42 357.9L340.04 357.87L339.66 357.84L339.29 357.8L338.91 357.76L338.54 357.72L338.17 357.68L337.79 357.64L337.42 357.59L337.05 357.54L336.68 357.49L336.32 357.43L335.95 357.37L335.58 357.31L335.22 357.25L334.86 357.19L334.49 357.12L334.13 357.05L333.77 356.98L333.41 356.91L333.05 356.83L332.7 356.75L332.34 356.67L331.99 356.59L331.63 356.5L331.28 356.42L330.93 356.33L330.58 356.24L330.23 356.14L329.88 356.04L329.04 356.98L328.18 357.9L327.29 358.8L326.38 359.68L325.44 360.55L324.48 361.4L323.5 362.23L322.49 363.04L321.46 363.83L320.41 364.6L319.33 365.35L318.24 366.08L317.12 366.8L315.98 367.48L314.83 368.15L313.65 368.8L312.45 369.42L311.24 370.02L310 370.6L308.75 371.16L307.48 371.69L306.2 372.2L304.9 372.68L303.58 373.14L302.24 373.57L300.89 373.98L299.53 374.36L298.15 374.72L296.76 375.05L295.35 375.35L293.93 375.63L292.5 375.88L291.06 376.1L289.6 376.29L288.13 376.46L286.65 376.59L285.16 376.7L283.66 376.77L282.16 376.82L280.64 376.83L278.14 376.79L275.68 376.67L273.24 376.46L270.83 376.18L268.45 375.82L266.1 375.39L263.79 374.88L261.52 374.3L259.29 373.65L257.09 372.93L254.95 372.14L252.84 371.29L250.78 370.37L248.78 369.39L246.82 368.35L244.92 367.25L243.07 366.09L241.27 364.88L239.54 363.61L237.87 362.29L236.26 360.91L234.71 359.49L233.23 358.02L231.82 356.5L230.48 354.94L229.21 353.33L228.02 351.68L226.9 349.99L225.86 348.27L224.9 346.5L224.03 344.7L223.23 342.87L222.53 341L221.91 339.11L221.38 337.18L220.94 335.23L220.6 333.25L220.35 331.25L220.2 329.22L220.15 327.17L220.15 327.09L220.15 327.02L220.15 326.94L220.15 326.86L220.15 326.78L220.15 326.71L220.15 326.63L220.15 326.55L220.15 326.48L220.16 326.4L220.16 326.32L220.16 326.24L220.16 326.17L220.16 326.09L220.16 326.01L220.17 325.93L220.17 325.86L220.17 325.78L220.17 325.7L220.18 325.63L220.18 325.55L220.18 325.47L220.19 325.39L220.19 325.32L220.19 325.24L220.2 325.16L220.2 325.09L220.21 325.01L220.21 324.93L220.22 324.86L220.22 324.78L220.22 324.7L220.23 324.63L220.23 324.55L220.24 324.47L220.25 324.4L220.25 324.32L220.26 324.25L220.26 324.17L220.27 324.09L218.47 323.76L216.7 323.39L214.95 322.99L213.23 322.55L211.54 322.08L209.88 321.58L208.25 321.04L206.65 320.47L205.08 319.87L203.55 319.24L202.05 318.58L200.58 317.89L199.16 317.17L197.77 316.42L196.42 315.65L195.11 314.84L193.84 314.02L192.61 313.16L191.43 312.29L190.29 311.38L189.19 310.46L188.14 309.51L187.14 308.54L186.19 307.55L185.29 306.54L184.43 305.51L183.63 304.46L182.88 303.39L182.19 302.3L181.55 301.2L180.96 300.08L180.44 298.94L179.97 297.79L179.56 296.63L179.21 295.45L178.92 294.25L178.69 293.05L178.53 291.83L178.43 290.6L178.4 289.36L178.45 287.88L178.59 286.41L178.82 284.96L179.14 283.52L179.56 282.1L180.05 280.71L180.37 279.96L178.54 278.97L176.66 277.87L174.85 276.72L173.11 275.53L171.44 274.3L169.84 273.03L168.31 271.71L166.86 270.36L165.49 268.97L164.2 267.54L162.99 266.08L161.87 264.58L160.83 263.05L159.88 261.5L159.02 259.91L158.26 258.29L157.59 256.65L157.02 254.98L156.55 253.29L156.17 251.58L155.91 249.84L155.74 248.09L155.69 246.31L155.73 244.83L155.84 243.37L156.03 241.91L156.29 240.47L156.62 239.05L157.02 237.64L157.49 236.24L158.03 234.87L158.64 233.51L159.31 232.17L160.05 230.85L160.85 229.56L161.71 228.28L162.63 227.02L163.61 225.79L164.65 224.58L165.74 223.4L166.89 222.24L168.1 221.11L169.36 220.01L170.67 218.93L172.03 217.88L173.44 216.86L174.9 215.88L176.41 214.92L177.96 213.99L179.56 213.1L181.2 212.24L182.89 211.42L184.61 210.63L186.38 209.87L188.18 209.15L190.02 208.47L191.9 207.83L193.81 207.23L195.75 206.67L197.73 206.14L199.74 205.66L201.78 205.22L203.84 204.83L203.84 204.74L203.83 204.65L203.82 204.56L203.81 204.46L203.81 204.37L203.8 204.28L203.8 204.19L203.79 204.1L203.79 204.01L203.78 203.92L203.77 203.82L203.77 203.73L203.76 203.64L203.76 203.55L203.76 203.46L203.75 203.37L203.75 203.27L203.74 203.18L203.74 203.09L203.74 203L203.73 202.91L203.73 202.81L203.73 202.72L203.72 202.63L203.72 202.54L203.72 202.44L203.72 202.35L203.71 202.26L203.71 202.17L203.71 202.08L203.71 201.98L203.71 201.89L203.71 201.8L203.71 201.71L203.71 201.61L203.7 201.52L203.7 201.43L203.7 201.34L203.7 201.24L203.7 201.15L203.76 198.71L203.93 196.29L204.22 193.89L204.61 191.53L205.12 189.2L205.73 186.9L206.44 184.63L207.25 182.4L208.16 180.21L209.17 178.06L210.27 175.95L211.47 173.89L212.75 171.87L214.13 169.9L215.59 167.98L217.13 166.12L218.75 164.3L220.45 162.55L222.23 160.85L224.08 159.21L226 157.63L228 156.11L230.06 154.66L232.19 153.28L234.38 151.96L236.63 150.72L238.94 149.55L241.3 148.45L243.72 147.43L246.19 146.49L248.71 145.63L251.28 144.86L253.9 144.16L256.55 143.56L259.25 143.04L261.99 142.61L264.76 142.27L267.56 142.03L270.4 141.88L273.27 141.83L275.01 141.85L276.75 141.91L278.47 142L280.19 142.12L280.19 142.12L281.89 142.28Z" id="a26FgrqKBg"></path></defs><g><g><use xlink:href="#a26FgrqKBg" opacity="1" fill="#ffffff" fill-opacity="1"></use><g><use xlink:href="#a26FgrqKBg" opacity="1" fill-opacity="0" stroke="#000000" stroke-width="2" stroke-opacity="1"></use></g></g></g></svg>