<svg xmlns="http://www.w3.org/2000/svg" viewBox="0 0 591 272"><defs><style>.cls-1{fill:#ffc364;}.cls-2{fill:#e28f71;}.cls-10,.cls-3,.cls-5{fill:none;}.cls-3,.cls-5,.cls-6,.cls-7,.cls-8{stroke:#000;}.cls-3,.cls-5,.cls-7{stroke-linejoin:round;}.cls-4{fill:#f0f0f0;}.cls-5{stroke-width:3px;}.cls-6,.cls-7,.cls-9{fill:#fff;}.cls-10,.cls-6,.cls-8{stroke-miterlimit:10;}.cls-6,.cls-7,.cls-8{stroke-width:2px;}.cls-8{fill:#ddd;}.cls-10{stroke:#fff;}</style></defs><title>sofa</title><g id="Layer_1_copy" data-name="Layer 1 copy"><path class="cls-1" d="M681,437.5v-183a5,5,0,0,1,5-5H920a5,5,0,0,1,5,5v183" transform="translate(-629 -248)"/><path class="cls-1" d="M1169,437.5v-183a5,5,0,0,0-5-5H930a5,5,0,0,0-5,5V438" transform="translate(-629 -248)"/><path class="cls-2" d="M924.5,436.5h-231a5,5,0,0,1-5-5v-110a5,5,0,0,0-5-5h-48a5,5,0,0,0-5,5v164a5,5,0,0,0,5,5h289" transform="translate(-629 -248)"/><path class="cls-3" d="M924.5,490.5" transform="translate(-629 -248)"/><line class="cls-3" x1="63.5" y1="158.5" x2="295.5" y2="158.5"/><line class="cls-3" x1="527" y1="158.5" x2="295" y2="158.5"/><polyline class="cls-4" points="34.5 243 34.5 270.5 51.5 270.5 51.5 243"/><path class="cls-2" d="M924.5,436.5h231a5,5,0,0,0,5-5v-110a5,5,0,0,1,5-5h48a5,5,0,0,1,5,5v164a5,5,0,0,1-5,5h-289" transform="translate(-629 -248)"/><polyline class="cls-4" points="556.5 242 556.5 270.5 539.5 270.5 539.5 242"/></g><g id="Layer_1" data-name="Layer 1"><path class="cls-5" d="M924.5,436.5h-231a5,5,0,0,1-5-5v-110a5,5,0,0,0-5-5h-48a5,5,0,0,0-5,5v164a5,5,0,0,0,5,5h289" transform="translate(-629 -248)"/><path class="cls-5" d="M924.5,490.5" transform="translate(-629 -248)"/><line class="cls-5" x1="63.5" y1="158.5" x2="295.5" y2="158.5"/><line class="cls-5" x1="527" y1="158.5" x2="295" y2="158.5"/><path class="cls-5" d="M681,311.5v-57a5,5,0,0,1,5-5H920a5,5,0,0,1,5,5v146" transform="translate(-629 -248)"/><path class="cls-5" d="M1169,311.5v-57a5,5,0,0,0-5-5H930c-2.75,0-5,1.35-5,3v3" transform="translate(-629 -248)"/><polyline class="cls-5" points="34.5 245.5 34.5 270.5 51.5 270.5 51.5 245.5"/><path class="cls-5" d="M924.5,436.5h231a5,5,0,0,0,5-5v-110a5,5,0,0,1,5-5h48a5,5,0,0,1,5,5v164a5,5,0,0,1-5,5h-289" transform="translate(-629 -248)"/><polyline class="cls-5" points="556.5 245.5 556.5 270.5 539.5 270.5 539.5 245.5"/></g><g id="Layer_3" data-name="Layer 3"><path class="cls-6" d="M830,384.83c0,15-13.14,21.65-34.17,21.65s-38.09-12.15-38.09-27.13,17.05-27.13,38.09-27.13S830,369.85,830,384.83Z" transform="translate(-629 -248)"/><ellipse class="cls-7" cx="144.91" cy="134.75" rx="20.61" ry="18.78"/><polyline class="cls-6" points="154.56 121.7 165.52 118.57 162.39 129.53"/><polyline class="cls-6" points="135 121.96 123 117.27 127.17 129.79"/><path class="cls-6" d="M759.83,389.27a5.91,5.91,0,0,0,10.43,0" transform="translate(-629 -248)"/><path class="cls-6" d="M777.57,389.27a5.91,5.91,0,0,0,10.43,0" transform="translate(-629 -248)"/><circle cx="145.43" cy="149.09" r="1.04"/><path class="cls-6" d="M829.48,390.05s-3.13,15.65-26.61,19.3c-11.13,1.73-29.74,2.09-44.87-8.35-3.46-2.39-1-3.65,1.57-2.61s8.67,5.74,18.78,6.26c20.35,1,21.39-5.22,21.39-5.22" transform="translate(-629 -248)"/><rect class="cls-8" x="364" y="81" width="114" height="76" rx="5" ry="5"/><path class="cls-9" d="M1059,363.42l-1.3,4.55a7,7,0,0,0-3.06-3.06l-.19-.19Z" transform="translate(-629 -248)"/><path class="cls-9" d="M1057.7,368a6.17,6.17,0,0,1,.67,2.8c0,3.74-3.32,6.76-7.42,6.76s-7.42-3-7.42-6.76a6.26,6.26,0,0,1,.69-2.85l0,.05,3.11-3.11a8.05,8.05,0,0,1,7.28,0Z" transform="translate(-629 -248)"/><path class="cls-9" d="M1057.7,368l-3.06-3.06A7,7,0,0,1,1057.7,368Z" transform="translate(-629 -248)"/><path class="cls-9" d="M1047.37,364.85h0a7.09,7.09,0,0,0-3.13,3.06L1043,363.6Z" transform="translate(-629 -248)"/><path class="cls-9" d="M1047.35,364.86l-3.11,3.11,0-.05A7.09,7.09,0,0,1,1047.35,364.86Z" transform="translate(-629 -248)"/><polyline class="cls-10" points="425.45 116.72 430 115.42 428.7 119.97"/><polyline class="cls-10" points="428.7 119.97 428.7 119.97 425.64 116.91 425.45 116.72"/><polyline class="cls-10" points="418.37 116.85 413.99 115.6 415.23 119.92 415.24 119.97"/><polyline class="cls-10" points="415.24 119.97 418.35 116.86 418.37 116.85"/><path class="cls-10" d="M1057.7,368a6.17,6.17,0,0,1,.67,2.8c0,3.74-3.32,6.76-7.42,6.76s-7.42-3-7.42-6.76a6.26,6.26,0,0,1,.69-2.85,7.09,7.09,0,0,1,3.13-3.06,8.05,8.05,0,0,1,7.28,0A7,7,0,0,1,1057.7,368Z" transform="translate(-629 -248)"/></g></svg>